<?xml version="1.0" encoding="utf-8"?>
<!-- Generator: Adobe Illustrator 19.2.1, SVG Export Plug-In . SVG Version: 6.00 Build 0)  -->
<svg version="1.1" id="Layer_1" xmlns="http://www.w3.org/2000/svg" xmlns:xlink="http://www.w3.org/1999/xlink" x="0px" y="0px"
	 viewBox="0 0 315.2 308" style="enable-background:new 0 0 315.2 308;" xml:space="preserve">
<style type="text/css">
	.st0{fill:#EAE7F8;}
	.st1{opacity:5.000000e-002;fill:#6473FF;enable-background:new    ;}
	.st2{fill:#171834;}
	.st3{fill:none;stroke:#000000;stroke-width:1.5;stroke-linecap:round;stroke-linejoin:round;}
	.st4{fill:none;stroke:#000000;stroke-width:2;stroke-linecap:round;stroke-linejoin:round;}
	.st5{fill:none;stroke:#000000;stroke-linecap:round;stroke-linejoin:round;}
	.st6{opacity:0.31;fill:#6473FF;enable-background:new    ;}
	.st7{fill:#0D0F23;}
	.st8{opacity:0.2;fill:#6473FF;enable-background:new    ;}
</style>
<title>without eye</title>
<path class="st0" d="M89,116.9c0,0-2.2-6.9-5.1-2.9s-1.4,4.8-1,9.3s1.2,18.4,1.2,18.4s2.6,9.2,2.8,11.2s0.3,6.7,1.1,8.4
	s2.1,6.3,7.8,2c0,0,0.6,16.5,8.8,28.9s5,6,5,6s-1.3,12.5-1.2,15.7s-2.5,17.7,11.9,41.7c0,0,6.7,15.4,13.8,20.3s23.2,12.3,23.2,12.3
	s17.2-4.7,20.1-8.3s8.2-11.4,9.8-17.1s5.8-17.8,8-22.3s3.4-7,3.4-7v-24.7c0,0-0.2-6.1-1.2-8c-0.7-1.2-1.7-2.3-2.9-3l-1.9-1.2
	c0,0,12.4-19.9,14.2-30.6l0.5-1.7c0,0,4,1,5.4-1.4s1.3-9.5,1.2-11.1s4.7-11.9,5.2-14.9s2-18.2,0.7-20.8s-4.6-4.3-6.9,0.7
	s-3.1,4-3,9.5s-0.9,8.2-0.9,8.2l-3.3-36.9l-2.3,3.3c0,0-0.6-23.6-2.1-30.6s-4.3-13.1-19.9-13.1s-26,0-31.5,2s-12.1,3.7-12.1,3.7
	l0.5-3.1c0,0-14.8,0.7-21.7,5.2c-6.9,4.5-11,7.5-11,7.5l-0.3-3.7c0,0-5-0.3-6,10.9s-1.6,28.2-1.6,31.9s-3.1,16.1-3.4,17.1
	s-1.5,4-1.5,4s-1.3-11-1.8-11.9S89,116.9,89,116.9z"/>
<path class="st1" d="M142.6,122.1c-1.9-6.9-9.4-10.4-14.3-11.5s-15.9-2.5-18.7,4.7c-1.6,4.4-1.6,9.2,0,13.6
	c2.8,8.2,20.9,6.8,24.5,6.3S144.5,129,142.6,122.1z M111.6,122.7c0,0,6.1-7,13.5-5.3s13.6,8.3,13.6,8.3S120.8,134.1,111.6,122.7
	L111.6,122.7z"/>
<path class="st1" d="M194.5,115.3c-2.8-7.2-13.8-5.8-18.7-4.7s-12.4,4.6-14.3,11.5s4.8,12.6,8.4,13.1s21.8,1.9,24.6-6.3
	C196.2,124.5,196.2,119.7,194.5,115.3z M181.3,128.7c-7.1,1.1-13.7-2.4-13.7-2.4c9.4-16.3,24.7-3,24.7-3
	C189.3,126.2,185.5,128.1,181.3,128.7L181.3,128.7z"/>
<path class="st2" d="M94.2,129.5c0,0-4.8-12-8.2-19s-7.3-32.2-6.2-41.9s-6.2,2.7-6.2,2.7s10-25.5,15.2-31s-9.9,4.9-9.9,4.9
	S99.8,15.8,124,5.8c4.5-1.8,6.9-2.2,11.2-2.9c1.4-0.2,15.4,2.1,16.8,2c1.7-0.2-5.7-2.9-4.6-3c5.7-0.8,15.4,1.3,24.1,5.1
	c16.6,7.3,19.4,11.1,19.4,11.1l-5.5-9.1l12.9,11.3l-3.1-8l8,7.7l0.5-3.9c0,0,10.2,17,4.6,34.5c0,0,22.9-3.1,17.6,25.5
	c-3.4,18.5-12.5,35.2-12.5,35.2l-4.7,17.5l-3.2-33.1l-2.2,3.6c0,0,5-41.3-15.7-41c0,0-27.6-7-49.9,4.7l0.5-3.1c0,0-19.8-0.5-32,12.1
	l-0.1-4c0,0-6.9,0.8-7.4,12.9S94.2,129.5,94.2,129.5z"/>
<path class="st2" d="M5.5,277c0,0-0.1-18.9,30.9-29.9s43.3-12.1,58.2-22.5c3.1-2.2,2.1-9.8,4-11.2c1-0.7,3.4-11.7,9-14.3
	c2.8-1.3,0.6,15.6,0.6,15.6s-2.2,31.3,21.9,56.9c22,23.3,33.7,14.5,33.7,14.5s9.5-1.4,16.9-10.8c3.8-4.8,3.2-4.4,6.3-12.5
	c0.8-2.2,2.5-8.5,3.2-10.9c2.1-7.6,7-11.8,7.9-17.2c2.4-15.4-0.1-33.9-0.1-33.9s8.6,6.2,15.2,19.2c1.7,3.4,7.4,4.1,13.2,6.3
	c22.2,8.3,72.4,21.2,87.8,63.2c0,0,6.9,19-13.1,17.5s-37.8-18-108.7,0.1c-28.9,7.4-118-34.9-138.3-34.1
	C17.5,274.5-2.5,301.5,5.5,277z"/>
<path class="st3" d="M208.3,50.5c0,0,6.2-16.5-4.6-34.5l0.4,5.6c0,0-2.1-5.3-10.4-10.3c0,0,3.2,6.3,4.5,8.9s-7.3-8.5-16-13.2
	c0,0,6.6,7.9,8.6,11c0,0-14.9-11.4-29.4-17.3c0,0,12.2,7.1,14.3,9.5c0,0-9.5-6.8-32.6-8.9c0,0,10.1,3.3,12.3,4.1
	c-10.5-2-21.2-3-31.9-2.9l10.6,2.1c0,0-8.9-1.6-19,5.3c0,0-13.9,8.7-22.9,18.7c-5.1,5.6-9.8,11.5-14.2,17.7l10.7-6
	c0,0-10.2,11.5-15.2,31l6.3-6.7c0,0-1.8,26.5,6.8,49c0,0,4.8,6.5,5.2,9.8s4,41.9,4,41.9s1.6,12.5,4.5,19.6
	c2.9,7.1,11.1,17.7,18.1,22.2s15.9,8.3,28.4,9.9c12.5,1.6,32.4-6,38.9-12.3s16.4-23,18.6-31s5.7-26.9,5.6-37.1s0.3-15.8,1.2-19.1
	s8.5-23,8.5-23s9-16.5,5.9-29.3S217,49.5,208.3,50.5z"/>
<path class="st4" d="M86.8,113.7c0,0-5.1-0.9-4.5,4.3s1.4,17.4,1.3,21.5s2.7,10.4,3.2,13.1s0.2,9.9,3.2,11.8s5.7-1.7,5.7-1.7"/>
<path class="st4" d="M89,124c0,0-5.5-5.1-6,1.4"/>
<path class="st5" d="M85.3,147.5c0,0,4.9,3.6,5.4,6.1s-3.1,3.9-2.7,7.4"/>
<path class="st5" d="M86.6,140.4c0.7,0.6,1.4,1.2,2,1.8c1,1.1,2,2.4,2,3.6"/>
<path class="st4" d="M210.9,119.3c0,0,4.9-7.2,7.6-4.8s1.6,18,0.7,22.1s-6.1,13.3-5.5,18.3s-0.1,11.6-6.9,9.3"/>
<path class="st4" d="M216.3,120.4c0,0-3,3.5-3.6,5.9"/>
<path class="st6" d="M116.4,201.8c0,0,5.3,15.8,15,22.3s40.7,11.8,52-23.2C183.5,200.8,155.8,222.7,116.4,201.8z"/>
<path class="st4" d="M213.9,142.8c0,0-4.7,2.1-5.2,10.1s0.6,10,0.6,10"/>
<path class="st7" d="M140,106.1l-0.5,3.4c0,0-20.9-6.5-35.4,0.4c0,0,5.9-11.1,24.6-6.9C140.7,105.7,140,106.1,140,106.1z"/>
<path class="st7" d="M165.5,106.1l1,3.2c0,0,29.3-5.5,32.6,4c0,0,1-7.5-6.5-9.3S165.5,106.1,165.5,106.1z"/>
<path class="st5" d="M141.8,131.7c0,0-2.7,16.1-5.3,21.2c-0.8,1.5-1.6,2.8-2.7,4.1"/>
<path class="st5" d="M163.3,141.1c0,0,3,10.4,3.7,11.7"/>
<path class="st3" d="M137.8,159.9c0,0,3.9-1.6,6.5,0.6s4,4.7,7.1,4.2"/>
<path class="st3" d="M166.2,160.9c0,0-4.9-2.6-7.5-0.4s-4,4.7-7.1,4.2"/>
<path class="st8" d="M118.3,178.3c0,0,12.2-9.2,23.5-11.8c0,0,2-0.2,4.7,2.7v3.3c0,0-12.7,0.1-24.5,12.1
	C122,184.5,112.5,189.7,118.3,178.3z"/>
<path class="st8" d="M184,178.3c0,0-12.2-9.2-23.5-11.8c0,0-2-0.2-4.7,2.7v3.3c0,0,12.7,0.1,24.4,12.1
	C180.3,184.5,189.8,189.7,184,178.3z"/>
<path class="st3" d="M130.2,182.2c0,0,5.2-0.8,7.7-1.3s12.8,3.1,23.5,0.7c3.2-0.7,9.5,0.8,9.5,0.8"/>
<path class="st3" d="M133.8,186.7c0,0,3.3,5.8,13.5,7.5s17.2-3.8,20.8-7.5"/>
<path class="st4" d="M1,270.8c0,0,18.7-18,44.7-27.7s47.5-14.7,50.1-20s3.3-19.3,11.3-24"/>
<path class="st4" d="M193.8,196.6c4.2,3.7,8.3,7.7,12,11.9c4.4,5.3,6,11.5,9.9,14s74.6,21.5,87.4,40.8s11,24,11,24"/>
<path class="st4" d="M109,198.3c0,0-2.9,28.5,2.8,40s14.8,33.5,25,39.4s20.4,10.6,20.4,10.6s17.9-4.8,21.4-9.6s8.1-12.4,10.1-21.5
	s9.4-22.4,9.4-22.4s1.5-29-1.2-35.4"/>
<path class="st5" d="M111.6,122.8c0,0,6.1-7,13.5-5.3s13.6,8.3,13.6,8.3"/>
<path class="st5" d="M192.3,123.4c0,0-15.3-13.3-24.7,3"/>
<path class="st5" d="M181.3,128.7"/>
<path class="st5" d="M138.7,120.8c0,0-3.8-5.3-14-5.8"/>
<path class="st5" d="M119.8,115.3c0,0-3.1,0-8.8,4.6"/>
<path class="st5" d="M163.9,122.9c0,0,7.4-12.6,22-6.7c6.4,2.6,7.3,3.7,7.3,3.7"/>
<path class="st4" d="M93,134.1c0,0,5.1-18.7,5.1-27.2s0-27.2,1.6-32.1s6.5-6.9,6.5-6.9l-1.5,5.5c0,0,14-14.3,33.6-13.6l-2.1,3.8
	c10.7-4.4,22.2-6.6,33.7-6.3c18.5,0.8,28.9-0.1,31.1,11.1s2.4,32.5,2.4,32.5l2.1-5.3l4.3,45.5"/>
<path class="st8" d="M159.5,286.3c0,0-13.7-7-21.7-17s-13.1-18.7-19.1-33.3c-3.7-9.1-6-28.8-6-28.8l7.9-6.4
	c-7.8-6.5-16.2-24.1-16.6-29.6s-3.8-28.5-3.1-34s4-21.7,4.5-33.8s-2-19.3,2.8-24.4s16.3-9.9,21.9-10.5s3.1,2,9.8-0.8
	c6.7-2.8,24.5-9.2,33-9.9s-8.8-1.6-17.9,0.3s-18.2,5-18.2,5l1.4-3.4c0,0-13.4,0.3-21.7,5.2c-8.3,4.9-11.9,8.4-11.9,8.4l1.5-5.5
	c0,0-7.2,1.6-7.3,10.6s-0.7,25.8-0.8,29.8s-0.8,11.2-2.1,13.7s-2.9,12.4-2.9,12.4l1.2,12.5c0,0,1.3,18.6,2.1,21s3,17.5,6.9,23.1
	c1.8,2.7,3.7,5.2,5.7,7.7c0,0-0.7,13.4-0.7,15.7s-1.8,14.4,3.4,24.8s14.7,29,19.4,33.5s15.3,11.2,18.7,12.9c2.6,1.2,5.2,2.1,8,2.7
	C157.7,288.3,163.2,289.3,159.5,286.3z"/>
</svg>
